<?xml version="1.0" encoding="utf-8"?>
<!-- Generator: Adobe Illustrator 25.4.1, SVG Export Plug-In . SVG Version: 6.00 Build 0)  -->
<svg version="1.1" id="Capa_1" xmlns="http://www.w3.org/2000/svg" xmlns:xlink="http://www.w3.org/1999/xlink" x="0px" y="0px"
	 viewBox="0 0 61.3 55.2" style="enable-background:new 0 0 61.3 55.2;" xml:space="preserve">
<g>
	<path d="M29.7,52.8c-6.7,0-13.5,0-20.2,0c-1.9,0-3.4-0.8-4.2-2.6c-0.3-0.7-0.5-1.5-0.5-2.3c0-10.2,0-20.4,0-30.5c0-3.3,0-6.6,0-9.9
		c0-1.9,0.8-3.3,2.5-4.2C8,2.9,8.8,2.8,9.6,2.8c9.2,0,18.3,0,27.5,0c4.3,0,8.6,0,12.9,0c1.9,0,3.3,0.8,4.2,2.5
		c0.4,0.7,0.5,1.5,0.5,2.3c0,9.3,0,18.5,0,27.8c0,4.2,0,8.5,0,12.7c0,1.9-0.8,3.3-2.5,4.2c-0.7,0.4-1.5,0.5-2.3,0.5
		C43.1,52.8,36.4,52.8,29.7,52.8z M32.2,24.3c0-0.1,0-0.1,0-0.1c0-0.5,0-1,0-1.6c0-0.9-0.5-1.4-1.4-1.4c-1.8,0-3.6,0-5.5,0
		c-0.5,0-1,0.2-1.2,0.7c-0.1,0.2-0.1,0.5-0.1,0.8c0,7.7,0,15.4,0,23.1c0,0.1,0,0.2,0,0.3c0,0.7,0.5,1.1,1.1,1.1c2,0,3.9,0,5.9,0
		c0.6,0,1-0.4,1.1-1c0-0.2,0-0.5,0-0.7c0-3.9,0-7.7,0-11.6c0-1.4,0.3-2.6,0.9-3.9c0.9-1.7,2.3-2.4,4.2-2.2c1.7,0.1,2.8,1,3.3,2.6
		c0.3,1,0.5,2,0.5,3.1c0,4.1,0,8.2,0,12.3c0,1,0.5,1.4,1.4,1.4c1.9,0,3.7,0,5.6,0c0.9,0,1.4-0.4,1.4-1.4c0-4.9,0-9.9-0.1-14.8
		c0-1.8-0.4-3.5-1-5.1c-1.1-2.7-3-4.3-5.9-4.9c-1.3-0.3-2.7-0.3-4.1-0.2c-1.8,0.2-3.5,0.7-4.9,2C33,23.3,32.6,23.8,32.2,24.3z
		 M20.1,34.3c0-3.9,0-7.7,0-11.6c0-1-0.5-1.5-1.5-1.5c-1.7,0-3.4,0-5.1,0c-1.1,0-1.6,0.5-1.6,1.6c0,7.7,0,15.3,0,23
		c0,1,0.5,1.5,1.5,1.5c1.7,0,3.4,0,5,0c1.2,0,1.6-0.4,1.6-1.6C20.2,41.9,20.2,38.1,20.1,34.3z M16,8.4c-3,0-5.3,2.4-5.3,5.3
		c0,2.9,2.4,5.2,5.3,5.2s5.3-2.4,5.3-5.3C21.4,10.7,19,8.4,16,8.4z"/>
</g>
</svg>
