<?xml version="1.0" encoding="utf-8"?>
<!-- Generator: Adobe Illustrator 25.4.1, SVG Export Plug-In . SVG Version: 6.00 Build 0)  -->
<svg version="1.1" id="Capa_1" xmlns="http://www.w3.org/2000/svg" xmlns:xlink="http://www.w3.org/1999/xlink" x="0px" y="0px"
	 viewBox="0 0 300 50.82" style="enable-background:new 0 0 300 50.82;" xml:space="preserve">
<style type="text/css">
	.st0{fill:#FFFFFF;}
	.st1{fill:#FDC942;}
</style>
<g>
	<path d="M133.67-67.42c-6.74,0-13.47,0-20.21,0c-1.93,0-3.42-0.81-4.25-2.57c-0.33-0.69-0.47-1.53-0.47-2.31
		c-0.03-10.18-0.02-20.37-0.02-30.55c0-3.29-0.01-6.57,0-9.86c0.01-1.91,0.85-3.34,2.54-4.23c0.72-0.38,1.51-0.47,2.32-0.47
		c9.16,0,18.32,0,27.48,0c4.31,0,8.62,0,12.93,0c1.91,0,3.34,0.84,4.24,2.53c0.38,0.72,0.48,1.51,0.48,2.32c0,9.26,0,18.51,0,27.77
		c0,4.23,0.01,8.46,0,12.69c-0.01,1.89-0.84,3.31-2.52,4.2c-0.72,0.38-1.51,0.49-2.32,0.48C147.14-67.42,140.41-67.42,133.67-67.42z
		 M136.2-95.95c-0.03-0.07-0.05-0.1-0.05-0.13c-0.01-0.52,0-1.04-0.02-1.56c-0.03-0.9-0.51-1.39-1.4-1.4c-1.82-0.01-3.64,0-5.47,0
		c-0.53,0-0.97,0.21-1.2,0.69c-0.11,0.24-0.13,0.53-0.13,0.81c-0.01,7.71,0,15.42,0,23.13c0,0.1,0,0.2,0.01,0.29
		c0.04,0.67,0.49,1.13,1.15,1.14c1.95,0.01,3.9,0.01,5.86,0c0.59,0,1.01-0.38,1.13-0.95c0.05-0.24,0.05-0.48,0.05-0.73
		c0-3.87,0.01-7.74,0-11.61c-0.01-1.36,0.28-2.65,0.91-3.85c0.89-1.69,2.34-2.36,4.21-2.2c1.66,0.14,2.79,1.03,3.27,2.58
		c0.3,0.98,0.48,2.03,0.5,3.06c0.05,4.1,0.02,8.2,0.02,12.3c0,0.96,0.45,1.41,1.39,1.41c1.87,0.01,3.74,0.01,5.61,0
		c0.94,0,1.39-0.44,1.38-1.37c-0.03-4.94-0.05-9.89-0.11-14.83c-0.02-1.75-0.37-3.46-1.04-5.09c-1.09-2.66-3.01-4.34-5.86-4.92
		c-1.35-0.27-2.71-0.3-4.08-0.16c-1.82,0.19-3.51,0.72-4.87,2C137.03-96.93,136.65-96.44,136.2-95.95z M124.16-85.98
		c0-3.86,0-7.71,0-11.57c0-1.01-0.49-1.5-1.5-1.5c-1.71-0.01-3.42-0.01-5.12,0c-1.05,0-1.57,0.51-1.57,1.56c0,7.66,0,15.33,0,22.99
		c0,1.04,0.48,1.52,1.53,1.52c1.68,0.01,3.35,0,5.03,0c1.24,0,1.64-0.39,1.64-1.63C124.16-78.39,124.16-82.19,124.16-85.98z
		 M120.06-111.86c-2.96,0.01-5.29,2.35-5.28,5.31c0.01,2.92,2.35,5.25,5.29,5.25c2.94,0,5.33-2.37,5.33-5.29
		C125.39-109.53,123.03-111.86,120.06-111.86z"/>
	<path class="st0" d="M136.2-95.95c0.44-0.49,0.83-0.97,1.27-1.39c1.37-1.28,3.06-1.81,4.87-2c1.37-0.14,2.72-0.11,4.08,0.16
		c2.85,0.58,4.77,2.26,5.86,4.92c0.67,1.63,1.02,3.34,1.04,5.09c0.07,4.94,0.08,9.89,0.11,14.83c0.01,0.93-0.45,1.36-1.38,1.37
		c-1.87,0.01-3.74,0.01-5.61,0c-0.95,0-1.39-0.45-1.39-1.41c0-4.1,0.03-8.2-0.02-12.3c-0.01-1.02-0.19-2.08-0.5-3.06
		c-0.48-1.55-1.61-2.44-3.27-2.58c-1.87-0.16-3.32,0.51-4.21,2.2c-0.63,1.2-0.92,2.49-0.91,3.85c0.02,3.87,0.01,7.74,0,11.61
		c0,0.24,0,0.49-0.05,0.73c-0.12,0.58-0.55,0.95-1.13,0.95c-1.95,0.01-3.9,0.01-5.86,0c-0.67,0-1.11-0.47-1.15-1.14
		c-0.01-0.1-0.01-0.2-0.01-0.29c0-7.71,0-15.42,0-23.13c0-0.27,0.02-0.57,0.13-0.81c0.23-0.48,0.66-0.69,1.2-0.69
		c1.82,0,3.64-0.01,5.47,0c0.89,0,1.38,0.49,1.4,1.4c0.02,0.52,0.01,1.04,0.02,1.56C136.15-96.06,136.17-96.03,136.2-95.95z"/>
	<path class="st0" d="M124.16-85.98c0,3.79,0,7.58,0,11.37c0,1.23-0.4,1.63-1.64,1.63c-1.68,0-3.35,0-5.03,0
		c-1.05,0-1.53-0.47-1.53-1.52c0-7.66,0-15.33,0-22.99c0-1.04,0.52-1.56,1.57-1.56c1.71-0.01,3.42-0.01,5.12,0
		c1.01,0,1.5,0.49,1.5,1.5C124.17-93.69,124.16-89.83,124.16-85.98z"/>
	<path class="st0" d="M120.06-111.86c2.96-0.01,5.33,2.33,5.34,5.27c0.01,2.92-2.38,5.29-5.33,5.29c-2.94,0-5.28-2.33-5.29-5.25
		C114.77-109.51,117.1-111.85,120.06-111.86z"/>
</g>
<g>
	<path class="st1" d="M16.68,32.48c0.72,0.75,1.5,1.33,2.35,1.74c0.85,0.4,1.74,0.61,2.68,0.61c1,0,1.82-0.25,2.46-0.75
		c0.64-0.5,0.97-1.18,0.97-2.04c0-0.73-0.19-1.31-0.57-1.76c-0.37-0.44-0.98-0.87-1.81-1.27c-0.83-0.4-1.94-0.86-3.31-1.37
		c-0.67-0.24-1.45-0.58-2.32-1.01c-0.87-0.43-1.7-0.99-2.48-1.68c-0.78-0.69-1.43-1.52-1.94-2.5c-0.51-0.98-0.77-2.17-0.77-3.57
		c0-1.67,0.44-3.11,1.31-4.32c0.87-1.21,2.06-2.13,3.55-2.77c1.49-0.63,3.15-0.95,4.99-0.95c1.88,0,3.52,0.31,4.9,0.93
		c1.39,0.62,2.54,1.4,3.45,2.34c0.92,0.94,1.62,1.9,2.1,2.87l-5.21,2.91c-0.4-0.67-0.87-1.26-1.39-1.76
		c-0.53-0.5-1.1-0.89-1.73-1.17s-1.31-0.42-2.04-0.42c-0.97,0-1.71,0.21-2.22,0.63s-0.77,0.93-0.77,1.55c0,0.65,0.25,1.21,0.75,1.7
		c0.5,0.48,1.21,0.93,2.14,1.33c0.93,0.4,2.06,0.83,3.38,1.29c0.99,0.38,1.92,0.81,2.78,1.31c0.86,0.5,1.62,1.1,2.29,1.8
		c0.66,0.7,1.18,1.51,1.55,2.42c0.37,0.92,0.57,1.97,0.57,3.15c0,1.43-0.29,2.7-0.87,3.82c-0.58,1.12-1.36,2.05-2.34,2.81
		c-0.99,0.75-2.1,1.33-3.35,1.71c-1.25,0.39-2.54,0.59-3.86,0.59c-1.83,0-3.53-0.33-5.11-0.99c-1.58-0.66-2.94-1.56-4.1-2.69
		s-2.06-2.37-2.7-3.71l4.76-3.43C15.33,30.84,15.97,31.73,16.68,32.48z"/>
	<path class="st1" d="M42.42,39.75h-6.14V8.26h6.14V39.75z M47.75,25.9c-0.4-0.59-1.1-0.89-2.1-0.89c-0.65,0-1.21,0.14-1.7,0.42
		c-0.49,0.28-0.86,0.67-1.13,1.17c-0.27,0.5-0.4,1.11-0.4,1.84h-1.05c0-1.48,0.24-2.82,0.73-4.02c0.49-1.2,1.22-2.15,2.2-2.86
		c0.98-0.71,2.24-1.07,3.77-1.07c1.53,0,2.77,0.27,3.69,0.81c0.93,0.54,1.61,1.33,2.04,2.38c0.43,1.05,0.65,2.34,0.65,3.87v12.19
		h-6.1v-11.3C48.35,27.34,48.15,26.49,47.75,25.9z"/>
	<path class="st1" d="M63.06,38.96c-1.57-0.79-2.79-1.92-3.65-3.37c-0.86-1.45-1.29-3.16-1.29-5.13c0-1.99,0.42-3.71,1.25-5.17
		c0.83-1.45,2.04-2.57,3.61-3.35s3.44-1.17,5.59-1.17c2.15,0,3.97,0.37,5.45,1.11c1.48,0.74,2.61,1.81,3.39,3.21
		c0.78,1.4,1.17,3.09,1.17,5.09c0,0.3,0,0.59,0,0.87c0,0.28-0.03,0.52-0.08,0.71H61.55v-3.39h11.46l-1.45,1.86
		c0.13-0.19,0.25-0.42,0.34-0.71c0.09-0.28,0.14-0.52,0.14-0.71c0-0.81-0.15-1.51-0.45-2.1c-0.3-0.59-0.71-1.05-1.25-1.37
		c-0.54-0.32-1.17-0.48-1.9-0.48c-0.92,0-1.68,0.2-2.3,0.61c-0.62,0.4-1.08,1.02-1.39,1.84c-0.31,0.82-0.48,1.85-0.51,3.09
		c0,1.13,0.16,2.1,0.48,2.91c0.33,0.81,0.81,1.42,1.46,1.84c0.64,0.42,1.44,0.63,2.38,0.63c1.07,0,2-0.2,2.77-0.61
		c0.77-0.4,1.38-1.01,1.84-1.82l5.45,1.33c-0.97,1.83-2.28,3.2-3.94,4.12c-1.65,0.91-3.67,1.37-6.04,1.37
		C66.5,40.15,64.64,39.75,63.06,38.96z"/>
	<path class="st0" d="M89.93,30.08c0.78,1.25,1.81,2.2,3.09,2.85c1.28,0.65,2.68,0.97,4.22,0.97c1.35,0,2.53-0.17,3.55-0.52
		c1.02-0.35,1.94-0.81,2.74-1.37s1.52-1.17,2.14-1.82v7.35c-1.13,0.89-2.37,1.59-3.71,2.1c-1.35,0.51-3.06,0.77-5.13,0.77
		c-2.26,0-4.35-0.35-6.26-1.05c-1.91-0.7-3.55-1.71-4.92-3.03c-1.37-1.32-2.44-2.88-3.19-4.68c-0.76-1.8-1.13-3.81-1.13-6.02
		c0-2.21,0.37-4.21,1.13-6.01c0.75-1.8,1.82-3.36,3.19-4.68c1.37-1.32,3.01-2.33,4.92-3.03c1.91-0.7,3.99-1.05,6.26-1.05
		c2.07,0,3.78,0.25,5.13,0.77c1.34,0.51,2.58,1.21,3.71,2.1v7.35c-0.62-0.65-1.33-1.26-2.14-1.84c-0.81-0.58-1.72-1.03-2.74-1.37
		c-1.03-0.34-2.21-0.51-3.55-0.51c-1.53,0-2.94,0.32-4.22,0.97c-1.28,0.65-2.31,1.59-3.09,2.83c-0.78,1.24-1.17,2.73-1.17,4.48
		C88.76,27.34,89.15,28.83,89.93,30.08z"/>
	<path class="st0" d="M110.92,25.33c0.91-1.45,2.18-2.58,3.79-3.39c1.62-0.81,3.43-1.21,5.45-1.21c2.02,0,3.83,0.4,5.43,1.21
		c1.6,0.81,2.86,1.94,3.79,3.39c0.93,1.45,1.39,3.16,1.39,5.13c0,1.94-0.47,3.63-1.39,5.09c-0.93,1.45-2.19,2.58-3.79,3.39
		c-1.6,0.81-3.41,1.21-5.43,1.21c-2.02,0-3.83-0.4-5.45-1.21c-1.61-0.81-2.88-1.94-3.79-3.39c-0.92-1.45-1.37-3.15-1.37-5.09
		C109.55,28.5,110.01,26.79,110.92,25.33z M116.41,32.94c0.4,0.69,0.93,1.22,1.57,1.59c0.65,0.38,1.37,0.57,2.18,0.57
		c0.78,0,1.5-0.19,2.16-0.57c0.66-0.38,1.19-0.91,1.58-1.59c0.39-0.69,0.58-1.51,0.58-2.48c0-0.97-0.2-1.8-0.58-2.5
		c-0.39-0.7-0.92-1.24-1.58-1.61c-0.66-0.38-1.38-0.57-2.16-0.57c-0.81,0-1.53,0.19-2.18,0.57c-0.64,0.38-1.17,0.91-1.57,1.61
		c-0.4,0.7-0.6,1.53-0.6,2.5C115.81,31.43,116.01,32.26,116.41,32.94z"/>
	<path class="st0" d="M145.86,25.9c-0.42-0.59-1.11-0.89-2.08-0.89c-0.65,0-1.21,0.13-1.7,0.4c-0.49,0.27-0.86,0.66-1.13,1.17
		c-0.27,0.51-0.4,1.13-0.4,1.86v11.3h-6.14V21.18h6.14v2.79c0.54-1.02,1.27-1.82,2.2-2.38c0.93-0.57,2.08-0.85,3.45-0.85
		c2.32,0,4,0.62,5.05,1.86c1.05,1.24,1.57,2.97,1.57,5.21v11.95h-6.34v-11.3C146.49,27.34,146.28,26.49,145.86,25.9z"/>
	<path class="st0" d="M161.2,34.84c0.77,0.44,1.45,0.75,2.04,0.93c0.59,0.18,1.1,0.26,1.53,0.26c0.62,0,1.08-0.13,1.37-0.4
		c0.3-0.27,0.44-0.62,0.44-1.05c0-0.4-0.12-0.75-0.36-1.03c-0.24-0.28-0.65-0.56-1.23-0.83c-0.58-0.27-1.37-0.55-2.36-0.85
		c-0.89-0.32-1.73-0.71-2.52-1.15c-0.8-0.44-1.45-1.04-1.96-1.8c-0.51-0.75-0.77-1.72-0.77-2.91c0-1.13,0.3-2.08,0.91-2.87
		c0.6-0.78,1.43-1.37,2.46-1.78c1.04-0.4,2.23-0.61,3.57-0.61c1.07,0,2.08,0.12,3.01,0.36c0.93,0.24,1.8,0.57,2.62,0.97
		c0.82,0.4,1.59,0.88,2.32,1.41l-2.18,3.96c-0.78-0.73-1.67-1.33-2.66-1.8c-1-0.47-1.91-0.71-2.75-0.71c-0.57,0-0.99,0.11-1.27,0.32
		s-0.42,0.5-0.42,0.85c0,0.4,0.17,0.74,0.51,1.01c0.34,0.27,0.82,0.52,1.45,0.75c0.63,0.23,1.41,0.52,2.32,0.87
		c0.97,0.35,1.86,0.75,2.68,1.21c0.82,0.46,1.48,1.04,1.98,1.73c0.5,0.7,0.75,1.63,0.75,2.79c0,1.99-0.61,3.49-1.84,4.5
		c-1.23,1.01-2.95,1.51-5.19,1.51c-1.32,0-2.55-0.16-3.69-0.46c-1.14-0.31-2.2-0.73-3.17-1.25c-0.97-0.52-1.87-1.11-2.7-1.76
		l2.54-4.04C159.58,33.79,160.44,34.4,161.2,34.84z"/>
	<path class="st0" d="M183.02,35c0.4,0.61,1.1,0.91,2.1,0.91c0.67,0,1.25-0.13,1.71-0.4c0.47-0.27,0.84-0.66,1.11-1.17
		c0.27-0.51,0.4-1.13,0.4-1.86v-11.3h6.09v18.57h-6.09v-2.79c-0.57,1-1.31,1.78-2.22,2.36c-0.92,0.58-2.06,0.87-3.43,0.87
		c-2.32,0-4-0.63-5.07-1.88c-1.06-1.25-1.59-2.98-1.59-5.19V21.18h6.38v11.3C182.41,33.56,182.62,34.4,183.02,35z"/>
	<path class="st0" d="M205.39,8.26v31.49h-6.14V8.26H205.39z"/>
	<path class="st1" d="M207.93,11.49h22.37v6.1h-7.79v22.16h-6.82V17.58h-7.75V11.49z"/>
	<path class="st1" d="M232.61,38.96c-1.57-0.79-2.79-1.92-3.65-3.37c-0.86-1.45-1.29-3.16-1.29-5.13c0-1.99,0.42-3.71,1.25-5.17
		c0.83-1.45,2.04-2.57,3.61-3.35c1.57-0.78,3.44-1.17,5.59-1.17c2.15,0,3.97,0.37,5.45,1.11c1.48,0.74,2.61,1.81,3.39,3.21
		c0.78,1.4,1.17,3.09,1.17,5.09c0,0.3,0,0.59,0,0.87c0,0.28-0.03,0.52-0.08,0.71H231.1v-3.39h11.46l-1.45,1.86
		c0.13-0.19,0.25-0.42,0.34-0.71c0.09-0.28,0.14-0.52,0.14-0.71c0-0.81-0.15-1.51-0.45-2.1c-0.3-0.59-0.71-1.05-1.25-1.37
		c-0.54-0.32-1.17-0.48-1.9-0.48c-0.92,0-1.68,0.2-2.3,0.61c-0.62,0.4-1.08,1.02-1.39,1.84c-0.31,0.82-0.48,1.85-0.51,3.09
		c0,1.13,0.16,2.1,0.48,2.91c0.33,0.81,0.81,1.42,1.46,1.84c0.64,0.42,1.44,0.63,2.38,0.63c1.07,0,2-0.2,2.77-0.61
		c0.77-0.4,1.38-1.01,1.84-1.82l5.45,1.33c-0.97,1.83-2.28,3.2-3.94,4.12c-1.65,0.91-3.67,1.37-6.04,1.37
		C236.05,40.15,234.19,39.75,232.61,38.96z"/>
	<path class="st1" d="M257.66,33.02c0.43,0.71,1.03,1.27,1.8,1.68c0.77,0.4,1.59,0.61,2.48,0.61c0.75,0,1.47-0.11,2.16-0.34
		c0.69-0.23,1.32-0.55,1.9-0.95c0.58-0.4,1.05-0.9,1.43-1.49v5.93c-0.65,0.51-1.45,0.92-2.42,1.23s-2.16,0.46-3.55,0.46
		c-2.04,0-3.88-0.4-5.51-1.21c-1.63-0.81-2.91-1.94-3.83-3.39c-0.93-1.45-1.39-3.15-1.39-5.09c0-1.96,0.46-3.67,1.39-5.11
		c0.93-1.44,2.2-2.56,3.83-3.37c1.63-0.81,3.47-1.21,5.51-1.21c1.4,0,2.59,0.16,3.55,0.46s1.77,0.69,2.42,1.15v5.98
		c-0.38-0.59-0.87-1.09-1.48-1.49c-0.6-0.4-1.26-0.71-1.96-0.93c-0.7-0.22-1.39-0.32-2.06-0.32c-0.89,0-1.72,0.22-2.48,0.65
		c-0.77,0.43-1.37,1.01-1.8,1.73c-0.43,0.73-0.64,1.55-0.64,2.46C257.02,31.46,257.23,32.31,257.66,33.02z"/>
	<path class="st1" d="M277.97,39.75h-6.14V8.26h6.14V39.75z M283.3,25.9c-0.4-0.59-1.1-0.89-2.1-0.89c-0.65,0-1.21,0.14-1.7,0.42
		c-0.49,0.28-0.86,0.67-1.13,1.17c-0.27,0.5-0.4,1.11-0.4,1.84h-1.05c0-1.48,0.24-2.82,0.73-4.02c0.49-1.2,1.22-2.15,2.2-2.86
		c0.98-0.71,2.24-1.07,3.77-1.07c1.53,0,2.77,0.27,3.69,0.81c0.93,0.54,1.61,1.33,2.04,2.38c0.43,1.05,0.65,2.34,0.65,3.87v12.19
		h-6.1v-11.3C283.9,27.34,283.7,26.49,283.3,25.9z"/>
</g>
</svg>
